<svg width="1440" height="800" viewBox="0 0 1440 800" fill="none" xmlns="http://www.w3.org/2000/svg">
<g clip-path="url(#clip0_7_8)">
<mask id="mask0_7_8" style="mask-type:luminance" maskUnits="userSpaceOnUse" x="0" y="0" width="1440" height="800">
<path d="M1440 0H0V800H1440V0Z" fill="white"/>
</mask>
<g mask="url(#mask0_7_8)">
<path d="M1147.26 181.205C1137.9 181.227 1127.77 185.742 1125.78 193.365C1124.38 198.725 1127.37 204.403 1132.12 208.2C1135.99 211.293 1141.13 213.555 1143.4 217.603C1144.6 219.744 1144.85 222.163 1144.95 224.525C1145.25 230.979 1144.63 237.461 1143.11 243.795C1141.52 250.432 1139.21 258.083 1144.28 263.373C1146.88 266.091 1151.02 267.539 1155.16 267.987C1164.49 269 1173.86 265.371 1180.8 260.083C1187.75 254.795 1192.69 247.971 1197.54 241.248C1204.08 232.166 1210.63 223.085 1217.17 214.002C1227.86 199.166 1213.87 194.381 1199.81 191.882C1183.67 189.014 1163.62 181.166 1147.26 181.205Z" fill="#283739"/>
<path d="M80.6861 656.49C71.3415 655.286 59.6525 655.264 54.9696 662.109C52.4775 665.752 52.9248 670.24 53.4471 674.411C55.081 687.469 56.7149 700.526 58.3488 713.586C58.8058 717.242 59.3165 721.032 61.6013 724.176C65.0496 728.923 72.0576 731.27 78.7162 731.234C85.3747 731.198 91.7703 729.133 97.7818 726.744C110.786 721.578 122.834 714.742 133.369 706.554C153.669 690.778 144.685 685.97 126.879 679.405C108.492 672.626 102.66 659.317 80.6861 656.49Z" fill="#283739"/>
<path d="M304.072 219.306C324.121 185.202 243.477 211.349 281.693 230.549C285.907 232.666 291.585 231.683 295.496 229.195C299.411 226.704 301.905 222.994 304.072 219.306Z" fill="#283739"/>
<path d="M1196.43 646.205C1209.57 627.84 1178.52 619.088 1168.44 635.189C1161.71 645.93 1168.78 659.15 1184.14 655.342C1189.53 654.006 1193.55 650.227 1196.43 646.205Z" fill="#283739"/>
<path d="M-39.9936 69.3968C-26.7034 79.6704 -14.9991 91.2928 -1.82785 101.675C14.3078 114.394 32.4998 125.134 49.8086 136.734C137.699 195.635 201.454 275.683 256.737 357.606C266.607 372.234 276.307 387.062 282.712 402.971C299.676 445.099 292.31 491 284.763 534.989C283.572 541.928 282.236 549.176 277.273 554.834C271.887 560.974 263.05 564.302 256.618 569.696C249.99 575.254 246.244 582.704 240.854 589.123C230.287 601.709 213.744 609.92 196.81 615.987C111.404 646.59 3.74207 626.672 -58.0973 568.827C-88.3066 540.57 -107.564 505.254 -136.737 476.25C-154.228 458.859 -175.54 443.394 -186.396 422.582C-198.459 399.458 -195.911 372.968 -203.042 348.464C-210.735 322.027 -229.338 298.899 -245.693 275.355C-278.281 228.445 -303.487 173.55 -288.695 120.765C-275.929 75.2096 -233.184 41.1888 -183.114 22.4928C-136.14 4.9504 -73.0349 43.8576 -39.9936 69.3968Z" fill="#2871EE"/>
<path d="M225.444 172.363C235.682 171.299 246.321 173.106 256.251 170.771C272.857 166.869 282.71 152.662 288.025 138.982C293.34 125.302 296.137 110.496 306.28 98.8656C313.379 90.728 323.624 84.7408 330.428 76.4304C338.469 66.6096 341.002 54.4672 343.342 42.7408C345.78 30.52 348.213 17.9648 345.214 5.83038C341.359 -9.76161 329.032 -22.8192 317.002 -35.1856C307.728 -44.7184 298.332 -54.2848 287.021 -62.1424C260.124 -80.8256 223.782 -88.4832 188.817 -86.9104C153.852 -85.3376 120.1 -75.1584 89.1533 -61.5072C70.5197 -53.2864 51.5174 -42.5952 44.3443 -26.0736C39.8458 -15.7168 40.6214 -4.28481 42.912 6.56158C46.896 25.4272 55.3229 43.6336 67.5706 59.8432C83.7466 81.2496 106.318 98.9856 121.697 120.798C133.359 137.339 142.568 164.363 160.692 176.947C180.223 190.506 204.791 174.51 225.444 172.363Z" fill="#4ECC5D"/>
<path d="M31.5974 790.432C52.2662 779.058 76.9305 773.923 98.9107 764.405C130.879 750.562 156.737 727.165 170.667 699.477C178.04 684.824 182.546 668.533 195.539 656.906C212.728 641.523 240.674 637.978 259.882 624.354C275.355 613.376 283.657 596.958 297.339 584.437C312.397 570.654 334.072 562.037 356.402 560.954C363.633 560.603 371.243 561.093 377.432 564.232C388.925 570.061 391.895 583.291 388.867 594.216C385.839 605.141 378.246 614.736 372.795 624.987C364.938 639.76 361.405 656.154 351.262 669.925C334.199 693.086 300.369 706.213 287.881 731.318C282.28 742.581 281.61 755.23 275.831 766.43C262.596 792.085 227.451 803.323 200.131 819.494C188.575 826.336 178.099 834.366 166.71 841.4C138.411 858.874 104.486 869.957 69.4752 873.162C53.8694 874.59 37.5552 874.395 23.1686 869.16C-21.4368 852.923 -0.18048 807.92 31.5974 790.432Z" fill="#4ECC5D"/>
<path d="M1000.02 28.8768C997.78 37.9856 998.976 47.4096 1000.18 56.6544C1001.3 65.2208 1002.41 73.7888 1003.53 82.3568C1004.39 88.9536 1005.28 95.6512 1008.3 101.794C1012.24 109.834 1019.54 116.352 1026.69 122.677C1044.56 138.491 1065.43 155.461 1091.49 155.731C1107.5 155.898 1122.76 149.523 1138.77 149.261C1158.91 148.93 1177.24 158.155 1196.5 163.054C1247.21 175.947 1301.04 158.499 1350.23 142.026C1369.05 135.723 1388.03 129.494 1407.88 126.024C1451.02 118.478 1498.07 123.91 1537.52 107.53C1569.74 94.1536 1591.46 68.3872 1611.8 43.6432C1620.73 32.7872 1629.79 21.7072 1634.33 9.104C1637.14 1.3264 1638.07 -7.3312 1634.07 -14.7376C1630.09 -22.0944 1621.88 -27.1824 1613.64 -31.4224C1554.05 -62.0944 1479.84 -64.3584 1409.94 -60.6448C1376.9 -58.8896 1343.94 -56.0032 1311.18 -51.9952C1288.88 -49.2656 1266.53 -45.9888 1245.32 -39.616C1223.22 -32.976 1202.43 -23.0016 1179.42 -19.0176C1151.64 -14.2064 1122.87 -18.4944 1094.5 -17.8768C1062.49 -17.1856 1007.4 -1.0688 1000.02 28.8768Z" fill="#4ECC5D"/>
<path d="M1435.2 340.205C1394.65 345.792 1357.79 364.022 1327.32 387.021C1296.86 410.019 1272.14 437.728 1248.17 465.557C1240.54 474.406 1232.93 483.362 1227.59 493.304C1212.11 522.118 1217.43 555.256 1220.16 586.744C1222.89 618.232 1221.35 653.077 1196.14 676.637C1186.89 685.277 1175.09 691.707 1164.89 699.566C1156.64 705.928 1149.27 713.33 1139.44 717.882C1125.91 724.15 1109.67 724.174 1094.33 725.874C1067.84 728.805 1042.27 737.256 1020.57 750.243C1003.33 760.565 988.024 774.494 982.898 791.664C979.749 802.208 980.623 813.259 981.518 824.099C984.215 856.795 987.98 891.822 1012.97 917.126C1042.05 946.56 1091.35 954.563 1136.59 960.235C1205.28 968.846 1274.89 976.47 1344.05 971.019C1402.93 966.378 1460.09 952.365 1516.82 938.422C1540.52 932.597 1564.46 926.688 1585.95 916.52C1625.83 897.648 1654.8 864.694 1668.8 828.301C1682.8 791.907 1682.54 752.342 1672.67 715.019C1652.42 638.469 1592.84 568.491 1596.12 490.15C1597.89 447.762 1618.33 405.803 1610.02 363.958C1607.72 352.378 1602.76 340.506 1592 332.93C1572.2 318.982 1550.15 333.11 1529.06 335.752C1498 339.64 1466.27 335.926 1435.2 340.205Z" fill="#4ECC5D"/>
<path d="M310.08 846.624C305.03 832.387 301.112 817.058 306.296 802.854C308.93 795.635 313.801 789.099 316.537 781.907C319.407 774.36 319.837 766.342 321.485 758.546C328.608 724.853 360.662 695.726 400.328 686.907C407.341 685.347 415.331 684.498 421.427 687.781C426.733 690.64 429.275 695.939 431.023 701C434.333 710.579 435.951 720.563 435.809 730.531C435.635 742.843 432.795 755.08 433.215 767.387C434.298 799.11 456.839 830.219 447.625 861.011C438.952 889.99 404.694 907.182 369.969 902.656C336.1 898.24 319.231 872.43 310.08 846.624Z" fill="#2871EE"/>
<path d="M1540.54 154.134C1514.7 148.038 1489.77 136.914 1462.92 137.57C1418.8 138.648 1385.44 170.349 1344.82 184.747C1319.59 193.688 1291.34 195.926 1266.81 206.133C1215.5 227.486 1192.81 277.246 1174.59 322.568C1167.51 340.168 1160.88 360.885 1173.57 376.139C1185.76 390.792 1210.61 393.445 1231.82 391.062C1256.51 388.29 1280.36 380.506 1300.75 368.571C1318.54 358.152 1333.64 344.691 1352.06 335.051C1430.82 293.829 1545.43 332.581 1620.98 287.37C1660.56 263.685 1680.83 215.837 1664.75 176.922C1654.78 152.797 1645.26 150.722 1619.7 154.286C1591.72 158.19 1569.39 160.941 1540.54 154.134Z" fill="#2871EE"/>
</g>
<mask id="mask1_7_8" style="mask-type:luminance" maskUnits="userSpaceOnUse" x="0" y="0" width="1440" height="800">
<path d="M1440 0H0V800H1440V0Z" fill="white"/>
</mask>
<g mask="url(#mask1_7_8)">
<path d="M1077.11 -213.112C1101.35 -196.867 1112.49 -169.624 1111.04 -143.731C1109.59 -117.838 1096.9 -93.168 1080.48 -71.1536C1066.86 -52.8832 1050.31 -35.5792 1043.07 -14.9328C1026.15 33.2624 1067.26 85.128 1121.21 107.498C1145.62 117.619 1172.42 123.288 1196.76 133.514C1221.1 143.739 1243.94 160.102 1250.14 182.224C1251.76 187.97 1251.79 194.838 1246.56 198.819C1237.58 205.654 1221.9 196.144 1222.48 186.024C1223.06 175.904 1233.32 168.118 1243.63 162.75C1257.97 155.285 1276.14 150.066 1291.59 155.784C1307.74 161.758 1314.91 177.075 1323.33 190.016C1334.14 206.626 1349.34 221.235 1367.55 232.498C1384.14 242.766 1403.59 250.61 1415.89 264.451C1425.88 275.694 1430.6 290.352 1443.55 299.254C1454.72 306.926 1470.11 308.934 1481.97 315.835C1499.24 325.886 1505.98 344.176 1511.6 361.098C1515.69 373.389 1519.8 385.891 1519.52 398.643C1519.14 415.664 1510.94 432.234 1512.14 449.229C1514.24 479.048 1543.77 501.744 1571.15 521.022C1589.82 534.17 1608.5 547.318 1627.17 560.466" stroke="#283739" stroke-miterlimit="10" stroke-linecap="round" stroke-linejoin="round"/>
<path d="M-112.491 523.453C-101.854 507.939 -77.0803 502.434 -56.0794 506.034C-35.0784 509.634 -17.0016 520.387 0.134403 531.126C30.432 550.112 60.3168 570.15 83.5526 595.109C91.6282 603.782 99.0662 613.184 109.799 619.549C124.168 628.07 142.673 630.072 160.308 629.939C198.28 629.654 236.102 620.525 268.38 603.853C261.492 591.227 241.006 585.291 226.205 591.63C211.404 597.971 205.275 615.309 213.587 627.323C216.854 632.046 221.843 635.797 225.3 640.424C228.758 645.051 230.44 651.349 226.669 655.803C224.836 657.968 221.998 659.363 219.652 661.152C208.136 669.936 211.363 686.749 222.313 696.022C233.265 705.294 249.243 708.856 264.499 711.618C308.899 719.658 356.845 725.176 390.972 750.173C428.463 777.637 439.772 821.456 458.502 860.016C460.285 863.69 462.601 867.706 467.067 869.069" stroke="#283739" stroke-miterlimit="10" stroke-linecap="round" stroke-linejoin="round"/>
</g>
<mask id="mask2_7_8" style="mask-type:luminance" maskUnits="userSpaceOnUse" x="0" y="0" width="1440" height="800">
<path d="M1440 0H0V800H1440V0Z" fill="white"/>
</mask>
<g mask="url(#mask2_7_8)">
<path d="M1169.3 707.941C1169.86 709.41 1170.55 710.929 1171.96 711.923C1172.12 712.032 1172.29 712.138 1172.49 712.166C1172.89 712.226 1173.26 711.96 1173.52 711.696C1175.26 709.955 1175.64 707.544 1175.66 705.277C1175.69 702.69 1175.4 690.942 1169.67 693.733C1164.51 696.248 1167.96 704.456 1169.3 707.941Z" fill="#283739"/>
<path d="M1042.92 797.24C1043.56 798.336 1044.3 799.402 1045.25 800.336C1045.9 800.979 1046.77 801.598 1047.78 801.544C1049.31 801.461 1050.07 799.979 1050.41 798.734C1051.51 794.672 1053.75 775.979 1045.41 775.914C1035.28 775.835 1040.7 793.475 1042.92 797.24Z" fill="#283739"/>
<path d="M1071.3 762.288C1071.69 762.518 1072.13 762.73 1072.6 762.733C1073 762.734 1073.37 762.595 1073.7 762.417C1075.83 761.267 1076.2 758.838 1076.32 756.726C1076.53 753.186 1075.53 739.987 1067.99 745.881C1062.8 749.939 1066.17 759.259 1071.3 762.288Z" fill="#283739"/>
<path d="M1101.42 716.966C1102.45 719.224 1103.73 721.701 1106.39 722.677C1106.85 722.846 1107.36 722.965 1107.86 722.893C1108.69 722.773 1109.28 722.165 1109.72 721.565C1111.83 718.678 1112.18 715.098 1111.62 711.749C1111.06 708.4 1109.67 705.194 1108.53 701.95C1107.1 697.896 1103.08 679.891 1096.11 690.126C1090.9 697.776 1098.06 709.659 1101.42 716.966Z" fill="#283739"/>
<path d="M1096.43 812.984C1097.5 814.102 1099.25 815.278 1100.74 814.566C1101.86 814.029 1102.02 812.753 1102.03 811.673C1102.05 808.494 1101.95 805.315 1101.72 802.141C1101.5 799.266 1101.18 796.376 1100.24 793.603C1098.48 788.344 1086.89 773.941 1085.49 786.706C1084.49 795.781 1089.77 806.04 1096.43 812.984Z" fill="#283739"/>
<path d="M1140.09 711.634C1140.5 712.035 1140.97 712.445 1141.59 712.558C1142.21 712.67 1142.85 712.459 1143.37 712.155C1144.71 711.365 1145.42 709.981 1145.54 708.614C1145.66 707.248 1145.25 705.886 1144.72 704.587C1143.61 701.848 1138.86 689.43 1134.94 695.544C1131.62 700.709 1136.14 707.771 1140.09 711.634Z" fill="#283739"/>
<path d="M1120.78 759.437C1121.24 759.861 1121.79 760.294 1122.48 760.32C1123.72 760.366 1124.39 759.128 1124.6 758.109C1125.24 755.101 1123.51 740.597 1117.1 742.018C1109.92 743.61 1118.4 757.234 1120.78 759.437Z" fill="#283739"/>
<path d="M1138.05 799.011C1138.73 800.55 1139.42 802.107 1140.55 803.453C1141.67 804.797 1143.3 805.926 1145.23 806.24C1145.52 806.286 1145.83 806.314 1146.11 806.229C1146.64 806.064 1146.88 805.552 1147.04 805.094C1149.37 798.333 1147.89 786.776 1140.41 782.198C1137.05 780.138 1134.69 781.937 1134.01 785.28C1133.11 789.653 1136.27 795.005 1138.05 799.011Z" fill="#283739"/>
<path d="M1164.1 758.122C1166.61 762.389 1170.4 766.242 1175.41 768.522C1175.79 768.698 1176.24 768.869 1176.66 768.766C1177.08 768.664 1177.35 768.322 1177.55 767.994C1179.12 765.427 1179.03 762.381 1178.54 759.53C1177.75 754.912 1175.98 750.418 1173.4 746.283C1171.97 744.008 1167.19 735.96 1163.55 735.973C1154.07 736.008 1162.43 755.283 1164.1 758.122Z" fill="#283739"/>
<path d="M1209.34 739.936C1211.6 745.226 1214.28 750.944 1220.11 753.76C1220.65 754.019 1221.24 754.256 1221.86 754.208C1222.59 754.15 1223.2 753.704 1223.66 753.227C1226.53 750.285 1225.95 745.987 1224.74 742.334C1223.34 738.141 1221.28 734.104 1218.65 730.344C1216.96 727.914 1212.67 720.931 1209.12 720.253C1198.41 718.208 1208.24 737.37 1209.34 739.936Z" fill="#283739"/>
<path d="M1220.56 804.712C1220.9 805.267 1221.33 805.877 1222.05 806.043C1222.81 806.218 1223.63 805.803 1224.03 805.237C1224.42 804.67 1224.5 803.987 1224.52 803.331C1224.69 798.995 1223.28 794.624 1220.54 790.939C1216.81 785.939 1215.26 791.475 1215.83 794.613C1216.48 798.203 1218.56 801.531 1220.56 804.712Z" fill="#283739"/>
<path d="M1198.65 774.366C1199.02 774.675 1199.48 774.997 1199.99 774.915C1200.27 774.872 1200.5 774.718 1200.69 774.555C1202 773.483 1202.48 771.858 1202.34 770.334C1202.2 768.811 1201.5 767.365 1200.73 765.979C1199.16 763.16 1191.94 752.264 1191.96 760.867C1191.96 765.838 1194.46 770.837 1198.65 774.366Z" fill="#283739"/>
<path d="M1184.77 820.427C1185.15 821.01 1185.57 821.608 1186.23 821.978C1186.89 822.347 1187.87 822.414 1188.44 821.947C1188.83 821.624 1188.94 821.138 1189.01 820.682C1189.79 815.781 1188.63 810.824 1187.46 805.977C1186.9 803.654 1186.4 798.688 1183.73 797.275C1181.3 795.989 1177.69 797.413 1176.72 799.549C1174.32 804.814 1181.79 815.899 1184.77 820.427Z" fill="#283739"/>
<path d="M1256.54 777.882C1258.51 781.054 1260.58 784.338 1264 786.494C1264.32 786.696 1264.67 786.896 1265.07 786.904C1265.82 786.92 1266.34 786.31 1266.66 785.752C1269.42 780.933 1267.89 775.213 1265.85 770.149C1264.15 765.944 1262.14 761.829 1259.81 757.838C1258.46 755.525 1256.32 750.907 1252.5 751.203C1249.36 751.448 1247.86 754.747 1247.69 756.934C1247.14 763.936 1252.84 771.906 1256.54 777.882Z" fill="#283739"/>
<path d="M1318.3 804.416C1319.46 806.554 1321.04 808.966 1323.82 809.362C1324.07 809.397 1324.34 809.413 1324.57 809.317C1324.88 809.184 1325.03 808.88 1325.13 808.598C1325.53 807.493 1325.68 806.333 1325.71 805.178C1325.85 801.021 1320.32 779.454 1313.79 780.426C1303.33 781.982 1316.56 801.232 1318.3 804.416Z" fill="#283739"/>
<path d="M1382.05 814.139C1383.51 816.445 1385.18 818.854 1387.96 820.048C1388.35 820.216 1388.78 820.358 1389.21 820.304C1390.13 820.187 1390.56 819.293 1390.7 818.528C1391.32 815.232 1390.06 811.909 1388.72 808.765C1387.26 805.346 1376.96 782.669 1372.18 786.541C1365.42 792.008 1379 809.315 1382.05 814.139Z" fill="#283739"/>
<path d="M1332 775.899C1334.1 773.605 1333.01 770.328 1331.83 767.611C1330.72 765.07 1324.38 754.891 1323.25 762.595C1322.91 764.907 1330.75 777.254 1332 775.899Z" fill="#283739"/>
<path d="M1216.46 697.622C1219.15 702.493 1221.98 707.366 1225.93 711.598C1227.46 713.23 1229.53 714.894 1232 714.714C1232.94 712.083 1231.34 709.328 1229.74 706.93C1227.16 703.082 1224.38 699.253 1220.57 696.203C1218.26 694.363 1214.65 694.344 1216.46 697.622Z" fill="#283739"/>
<path d="M1013.94 796.715C1015.14 796.826 1015.73 795.533 1015.85 794.531C1016.21 791.619 1015.84 772.104 1009.86 776.157C1007.58 777.702 1007.12 782.512 1007.35 784.698C1007.59 787.013 1010.71 796.416 1013.94 796.715Z" fill="#283739"/>
<path d="M1062.31 713.776C1062.37 713.576 1062.46 713.413 1062.58 713.299C1063.14 712.784 1064.17 712.822 1064.87 713.194C1069.56 715.667 1069.28 722.72 1067.91 726.525C1065.56 725.914 1064.55 723.648 1064.01 721.648C1063.68 720.416 1061.81 715.56 1062.31 713.776Z" fill="#283739"/>
<path d="M1035.5 747.688C1036.17 748.968 1037.07 750.33 1038.65 750.792C1038.97 750.886 1039.34 750.934 1039.64 750.8C1039.87 750.696 1040.02 750.502 1040.14 750.312C1041.39 748.434 1041.38 746.168 1041.19 744.027C1040.97 741.614 1038.72 729.181 1033.86 731.352C1028.73 733.642 1034.06 744.909 1035.5 747.688Z" fill="#283739"/>
<path d="M1265.21 732.323C1267.92 739.651 1270.91 747.339 1277.7 752.517C1277.95 752.71 1278.25 752.912 1278.59 752.894C1278.83 752.883 1279.04 752.768 1279.21 752.637C1280.42 751.733 1280.39 750.166 1280.23 748.817C1279.31 741.31 1276.85 733.515 1270.44 728.179C1265.16 723.781 1263.66 728.12 1265.21 732.323Z" fill="#283739"/>
<path d="M118.316 -0.585597C116.986 -2.36 115.465 -4.168 113.207 -5.08C112.959 -5.1808 112.691 -5.2704 112.416 -5.2528C111.857 -5.216 111.487 -4.7648 111.245 -4.344C109.653 -1.568 110.133 1.7104 111.012 4.6992C112.015 8.1104 117.133 23.4832 123.548 18.2096C129.324 13.4592 121.473 3.6272 118.316 -0.585597Z" fill="#283739"/>
<path d="M496.965 2.7616C496.199 1.7216 495.341 0.718398 494.296 -0.137602C493.574 -0.728002 492.636 -1.2752 491.639 -1.1424C490.126 -0.940802 489.539 0.593598 489.343 1.8608C488.705 5.992 488.579 24.7776 496.888 24.1888C506.988 23.4736 499.597 6.336 496.965 2.7616Z" fill="#283739"/>
<path d="M472.652 39.7824C472.239 39.584 471.779 39.4064 471.304 39.4416C470.915 39.4704 470.559 39.6384 470.252 39.8416C468.261 41.1536 468.167 43.6 468.28 45.712C468.47 49.2528 470.959 62.3152 477.798 55.8576C482.507 51.4096 478.099 42.3968 472.652 39.7824Z" fill="#283739"/>
<path d="M447.78 87.2624C446.492 85.096 444.941 82.7296 442.188 81.9664C441.709 81.8336 441.187 81.7568 440.7 81.8672C439.885 82.0512 439.365 82.704 438.995 83.3344C437.217 86.3728 437.28 89.9664 438.213 93.256C439.146 96.5456 440.888 99.6304 442.391 102.77C444.271 106.694 450.311 124.304 456.094 113.568C460.418 105.544 451.951 94.2736 447.78 87.2624Z" fill="#283739"/>
<path d="M441.915 -8.72159C440.723 -9.75039 438.851 -10.7856 437.447 -9.95999C436.389 -9.33759 436.378 -8.05439 436.489 -6.97919C436.819 -3.81119 437.282 -0.654393 437.875 2.48641C438.411 5.33281 439.062 8.18241 440.302 10.872C442.656 15.9696 455.812 29.4016 455.77 16.5824C455.741 7.47201 449.324 -2.32959 441.915 -8.72159Z" fill="#283739"/>
<path d="M409.876 95.6016C409.421 95.2352 408.908 94.8624 408.28 94.7984C407.652 94.7344 407.038 94.9968 406.558 95.3392C405.31 96.2304 404.757 97.6656 404.794 99.0352C404.83 100.405 405.393 101.728 406.061 102.979C407.472 105.619 413.604 117.61 416.824 111.216C419.547 105.814 414.25 99.136 409.876 95.6016Z" fill="#283739"/>
<path d="M423.709 46.4976C423.205 46.112 422.607 45.7232 421.924 45.7504C420.682 45.8016 420.157 47.0864 420.058 48.1184C419.762 51.1632 423.122 65.4672 429.345 63.5504C436.309 61.4032 426.332 48.504 423.709 46.4976Z" fill="#283739"/>
<path d="M402.06 8.44959C401.209 6.97119 400.343 5.47359 399.068 4.22399C397.795 2.97439 396.046 1.97599 394.088 1.81599C393.794 1.79199 393.487 1.78879 393.222 1.89439C392.705 2.10079 392.527 2.62879 392.421 3.09759C390.86 10.0112 393.638 21.4016 401.599 25.3744C405.181 27.1616 407.326 25.1856 407.628 21.8048C408.023 17.3808 404.277 12.2992 402.06 8.44959Z" fill="#283739"/>
<path d="M380.734 51.2C377.75 47.1488 373.542 43.6096 368.302 41.7312C367.899 41.5872 367.44 41.4512 367.029 41.5856C366.618 41.72 366.392 42.0832 366.228 42.424C364.952 45.1024 365.388 48.128 366.196 50.9296C367.503 55.464 369.771 59.8016 372.81 63.7152C374.483 65.8688 380.15 73.5072 383.777 73.208C393.218 72.4288 382.717 53.896 380.734 51.2Z" fill="#283739"/>
<path d="M337.745 72.8496C334.892 67.76 331.582 62.2784 325.457 59.9296C324.895 59.7136 324.276 59.5248 323.668 59.6208C322.944 59.736 322.395 60.2272 321.986 60.7376C319.463 63.8912 320.521 68.1264 322.143 71.6656C324.008 75.7312 326.511 79.5888 329.549 83.1264C331.511 85.4128 336.57 92.0288 340.182 92.4256C351.078 93.624 339.13 75.3184 337.745 72.8496Z" fill="#283739"/>
<path d="M319.273 9.23839C318.864 8.71199 318.372 8.13919 317.631 8.03039C316.856 7.91679 316.09 8.39199 315.757 8.98879C315.425 9.58399 315.433 10.2688 315.481 10.9248C315.802 15.256 317.693 19.496 320.845 22.9488C325.123 27.6352 326.041 22.0016 325.117 18.9232C324.061 15.3984 321.617 12.2496 319.273 9.23839Z" fill="#283739"/>
<path d="M344.506 37.7328C344.106 37.4544 343.605 37.1712 343.106 37.2912C342.839 37.3552 342.628 37.5264 342.449 37.704C341.268 38.8736 340.971 40.5296 341.284 42.0352C341.597 43.5408 342.453 44.9264 343.377 46.2448C345.256 48.9296 353.679 59.2096 352.692 50.6464C352.12 45.7008 349.075 40.9184 344.506 37.7328Z" fill="#283739"/>
<path d="M353.124 -9.2112C352.679 -9.76 352.197 -10.3232 351.496 -10.64C350.797 -10.9568 349.816 -10.9456 349.306 -10.4368C348.95 -10.0848 348.899 -9.592 348.877 -9.1328C348.655 -4.19201 350.364 0.651195 352.08 5.38399C352.902 7.65279 353.956 12.5584 356.776 13.7568C359.343 14.8464 362.771 13.1472 363.5 10.944C365.293 5.51519 356.6 -4.936 353.124 -9.2112Z" fill="#283739"/>
<path d="M286.472 38.7696C284.156 35.7648 281.722 32.6592 278.077 30.7792C277.736 30.6032 277.357 30.4336 276.956 30.456C276.215 30.4976 275.768 31.1456 275.512 31.7264C273.302 36.7408 275.47 42.3152 278.075 47.1968C280.239 51.2496 282.712 55.1888 285.477 58.9808C287.078 61.1792 289.738 65.608 293.503 65.0144C296.603 64.5248 297.721 61.1232 297.646 58.9328C297.406 51.9168 290.832 44.4272 286.472 38.7696Z" fill="#283739"/>
<path d="M221.998 17.1888C220.593 15.152 218.753 12.8736 215.942 12.6976C215.689 12.6816 215.416 12.688 215.201 12.8016C214.902 12.9584 214.792 13.272 214.723 13.5616C214.451 14.6944 214.435 15.8608 214.527 17.0128C214.86 21.1616 222.795 42.2 229.192 40.72C239.428 38.352 224.091 20.224 221.998 17.1888Z" fill="#283739"/>
<path d="M157.429 12.5056C155.718 10.3232 153.782 8.05761 150.881 7.08641C150.474 6.95041 150.027 6.84161 149.603 6.92961C148.7 7.11841 148.381 8.04161 148.324 8.81441C148.076 12.1456 149.708 15.3536 151.4 18.3792C153.239 21.6688 166.051 43.4384 170.375 39.2096C176.481 33.2352 161.005 17.0688 157.429 12.5056Z" fill="#283739"/>
<path d="M211.574 46.6544C209.733 49.104 211.192 52.28 212.676 54.8928C214.063 57.336 221.528 66.9728 221.781 59.2144C221.856 56.8848 212.661 45.2064 211.574 46.6544Z" fill="#283739"/>
<path d="M263.33 9.2784C261.612 4.1104 259.759 -1.0768 256.671 -5.7824C255.481 -7.5968 253.757 -9.5168 251.282 -9.6688C249.842 -7.1984 250.892 -4.2656 252.017 -1.6832C253.824 2.4592 255.823 6.6096 259.006 10.1296C260.928 12.2544 264.488 12.7568 263.33 9.2784Z" fill="#283739"/>
<path d="M179.414 -12.5392C179.219 -12.656 179.007 -12.7728 178.767 -12.7872C178.476 -12.8048 178.199 -12.664 177.994 -12.4896C177.197 -11.8144 177.243 -10.7408 177.343 -9.79679C177.621 -7.14879 182.106 17.3872 188.857 8.56161C190.884 5.91201 187.87 -0.100792 186.816 -2.81759C185.38 -6.51999 183.304 -10.2048 179.414 -12.5392Z" fill="#283739"/>
<path d="M525.871 1.01441C524.663 0.99841 524.227 2.33121 524.218 3.33761C524.191 6.26561 526.76 25.664 532.255 21.1616C534.351 19.4448 534.263 14.6208 533.793 12.4624C533.293 10.176 529.121 1.05921 525.871 1.01441Z" fill="#283739"/>
<path d="M487.071 87.376C487.037 87.5808 486.968 87.7488 486.858 87.8704C486.361 88.4272 485.328 88.4704 484.587 88.1552C479.649 86.0592 479.126 79.016 480.06 75.12C482.467 75.544 483.727 77.7216 484.493 79.6688C484.963 80.872 487.377 85.5584 487.071 87.376Z" fill="#283739"/>
<path d="M509.937 51.5136C509.13 50.2912 508.084 49.0064 506.46 48.6704C506.129 48.6016 505.757 48.5824 505.473 48.7392C505.254 48.8608 505.127 49.0656 505.023 49.2656C503.992 51.232 504.255 53.4896 504.693 55.6048C505.187 57.9888 508.823 70.192 513.418 67.6496C518.26 64.9664 511.688 54.168 509.937 51.5136Z" fill="#283739"/>
<path d="M282.981 84.8064C279.458 77.7232 275.612 70.304 268.272 65.68C267.997 65.5072 267.679 65.3296 267.339 65.3744C267.107 65.4048 266.911 65.536 266.749 65.68C265.644 66.6752 265.849 68.232 266.168 69.5616C267.934 76.9632 271.263 84.5312 278.243 89.3408C283.997 93.3056 285.001 88.8672 282.981 84.8064Z" fill="#283739"/>
</g>
<mask id="mask3_7_8" style="mask-type:luminance" maskUnits="userSpaceOnUse" x="0" y="0" width="1440" height="800">
<path d="M1440 0H0V800H1440V0Z" fill="white"/>
</mask>
<g mask="url(#mask3_7_8)">
<path d="M41.5142 -53.1488C41.5142 -53.1488 50.976 -42.0464 50.5382 -13.112C50.1004 15.8224 61.0022 27.7968 62.2291 49.4144C63.4559 71.0336 73.3728 84.7488 86.0371 101.274C98.7014 117.798 112.583 136.998 132.284 152.832C151.985 168.664 167.591 167.41 179.568 183.232" stroke="#283739" stroke-miterlimit="10" stroke-linecap="round" stroke-linejoin="round"/>
<path d="M64.5465 63.7792C64.5465 63.7792 60.8063 70.8096 61.4841 88.8928C62.1638 106.978 57.7171 111.75 59.975 131.256" stroke="#283739" stroke-miterlimit="10" stroke-linecap="round" stroke-linejoin="round"/>
<path d="M69.2083 75.9504C69.2083 75.9504 83.6774 86 97.5398 100.504C111.402 115.008 138.751 131.488 157.025 133.68C175.3 135.87 183.79 135.946 195.26 136.917" stroke="#283739" stroke-miterlimit="10" stroke-linecap="round" stroke-linejoin="round"/>
<path d="M59.975 131.258C59.975 131.258 51.4367 134.142 45.6825 142.795C39.9283 151.448 36.5836 156.386 30.5587 164.037C24.5337 171.686 23.3011 188.229 29.2876 200.16C35.2742 212.091 44.8243 226.934 53.9174 235.866C63.0124 244.795 70.8191 257.861 79.3036 262.168C87.7862 266.477 95.4815 277.246 95.4815 277.246C95.4815 277.246 97.8662 267.33 103.97 259.034C110.074 250.738 118.136 233.795 118.767 216.875C119.399 199.955 109.547 181.17 103.436 173.472C97.3247 165.773 87.6902 154.84 82.1183 149.146C76.5465 143.451 59.975 131.258 59.975 131.258Z" stroke="#283739" stroke-miterlimit="10" stroke-linecap="round" stroke-linejoin="round"/>
<path d="M59.8156 132.566C59.8156 132.566 53.5046 144.762 52.1702 154.766C50.8358 164.771 51.7459 173.989 51.0297 184.373C50.3135 194.757 55.7625 204.683 57.2217 211.989C58.6809 219.293 63.6556 233.098 75.8534 242.29C88.0492 251.482 95.9059 275.723 95.9059 275.723C95.9059 275.723 100.337 254.994 98.3116 237.99C96.2879 220.986 96.9791 200.734 89.1302 191.224C81.2812 181.714 80.11 165.621 72.8812 154.237C65.6505 142.853 59.8156 132.566 59.8156 132.566Z" stroke="#283739" stroke-miterlimit="10" stroke-linecap="round" stroke-linejoin="round"/>
<path d="M179.568 183.232C179.568 183.232 177.172 184.936 178.51 191.904C179.85 198.872 178.583 212.474 177.012 222.133C175.444 231.792 178.245 243.126 173.52 251.866C168.795 260.605 179.186 281.395 189.062 287.126C198.939 292.859 211.68 300.792 231.373 303.112C251.067 305.432 266.909 313.629 272.219 315.058C277.528 316.486 281.866 319.464 281.866 319.464C281.866 319.464 281.238 282.854 274.948 266.981C268.658 251.107 251.787 228.864 242.137 218.054C232.487 207.245 215.831 199.307 207.425 194.352C199.021 189.397 183.796 182.008 179.568 183.232Z" stroke="#283739" stroke-miterlimit="10" stroke-linecap="round" stroke-linejoin="round"/>
<path d="M179.568 183.232C179.568 183.232 187.338 192.066 188.763 199.661C190.187 207.254 190.831 214.818 192.778 230.976C194.724 247.134 200.258 253.152 209.155 263.698C218.052 274.243 228.839 282.158 237.947 287.752C247.056 293.346 253.288 300.074 261.73 304.706C270.175 309.338 281.866 319.466 281.866 319.466C281.866 319.466 271.133 295.056 264.292 283.706C257.451 272.355 244.497 253.307 239.662 248.002C234.826 242.696 232.214 228.766 222.541 218.155C212.868 207.544 207.997 199.298 199.246 193.987C190.495 188.677 179.568 183.232 179.568 183.232Z" stroke="#283739" stroke-miterlimit="10" stroke-linecap="round" stroke-linejoin="round"/>
<path d="M195.258 136.918C192.695 135.501 216.664 128.224 229.511 122.456C242.356 116.69 244.026 115.842 259.887 114.251C275.748 112.661 287.706 104.534 300.697 104.003C313.688 103.472 327.834 106.301 345.892 112.4C363.949 118.499 376.015 128.758 383.499 131.627C390.983 134.496 396.056 137.864 396.056 137.864C396.056 137.864 384.839 143.117 377.153 148.341C369.466 153.565 354.795 161.462 344.473 165.81C334.151 170.158 318.323 174.693 303.978 173.478C289.634 172.264 267.201 163.51 251.818 157.965C236.433 152.418 211.423 145.856 195.258 136.918Z" stroke="#283739" stroke-miterlimit="10" stroke-linecap="round" stroke-linejoin="round"/>
<path d="M195.258 136.918C195.258 136.918 227.946 128.853 243.579 125.933C259.21 123.013 281.731 119.755 297.594 120.581C313.457 121.406 337.922 123.15 354.276 127.147C370.631 131.144 396.054 137.866 396.054 137.866C396.054 137.866 347.086 151.635 328.339 153.982C309.592 156.33 284.127 153.158 269.748 149.021C255.37 144.883 236.026 142.92 226.372 141.776C216.718 140.63 195.258 136.918 195.258 136.918Z" stroke="#283739" stroke-miterlimit="10" stroke-linecap="round" stroke-linejoin="round"/>
<path d="M1353.58 510.214C1353.58 510.214 1353.9 522.803 1360.58 541.502C1367.25 560.202 1378.63 585.31 1391.49 599.181C1404.35 613.051 1421.63 634.373 1438.52 647.214C1455.4 660.056 1461.71 676.35 1477.86 692.27C1494.02 708.19 1498.96 731.133 1509.47 745.312C1519.98 759.491 1539.09 804.666 1544.98 833.506" stroke="#283739" stroke-miterlimit="10" stroke-linecap="round" stroke-linejoin="round"/>
<path d="M1366.36 626.019C1366.36 626.019 1379.63 628.846 1398.68 630.861C1417.74 632.877 1430.11 643.848 1441.75 649.824" stroke="#283739" stroke-miterlimit="10" stroke-linecap="round" stroke-linejoin="round"/>
<path d="M1353.58 510.214C1353.58 510.214 1340.18 498.267 1319.15 488.622C1298.12 478.978 1286.67 461.221 1280.92 446.086C1275.17 430.952 1281.23 408.008 1286.81 394.755C1292.4 381.502 1296.7 373.715 1301.78 363.901C1306.86 354.085 1305.64 343.651 1305.64 343.651C1305.64 343.651 1320.42 358.614 1333.29 365.565C1346.16 372.515 1362.39 391.09 1366 404.098C1369.62 417.104 1370.62 437.677 1367.08 452.587C1363.55 467.496 1360.48 481.862 1356.83 490.045C1353.18 498.229 1353.58 510.214 1353.58 510.214Z" stroke="#283739" stroke-miterlimit="10" stroke-linecap="round" stroke-linejoin="round"/>
<path d="M1353.58 510.214C1353.58 510.214 1331.77 473.595 1324.11 460.637C1316.46 447.678 1312.25 437.638 1309 417.362C1305.74 397.085 1312.48 388.014 1312.31 378.89C1312.13 369.765 1305.64 343.653 1305.64 343.653C1305.64 343.653 1317.73 376.29 1323.21 384.701C1328.68 393.11 1334.88 412.038 1337.63 425.882C1340.38 439.725 1344.39 453.162 1345.58 467.931C1346.78 482.699 1353.58 510.214 1353.58 510.214Z" stroke="#283739" stroke-miterlimit="10" stroke-linecap="round" stroke-linejoin="round"/>
<path d="M1366.36 626.019C1366.36 626.019 1347.23 625.643 1329.72 630.832C1312.21 636.019 1292.77 637.128 1277.23 634.354C1261.68 631.581 1239.93 620.472 1228.63 606.549C1217.34 592.626 1216.36 578.307 1214.08 563.2C1211.8 548.093 1207.52 531.32 1207.52 531.32C1207.52 531.32 1239.34 534.845 1254.27 543.478C1269.19 552.112 1283.07 552.214 1297.55 558.499C1312.03 564.784 1326.36 576.384 1335.97 590.53C1345.57 604.675 1366.36 626.019 1366.36 626.019Z" stroke="#283739" stroke-miterlimit="10" stroke-linecap="round" stroke-linejoin="round"/>
<path d="M1207.52 531.318C1207.52 531.318 1215.57 546.632 1225.18 560.778C1234.79 574.923 1247.6 596.835 1265.25 604.629C1282.9 612.422 1288.61 620.339 1313.22 619.515C1337.82 618.691 1366.36 626.019 1366.36 626.019C1366.36 626.019 1330.86 603.237 1313.77 595.37C1296.68 587.502 1285.91 576.397 1267.7 568.677C1249.48 560.957 1241.15 550.496 1231.45 545.029C1221.75 539.562 1207.52 531.318 1207.52 531.318Z" stroke="#283739" stroke-miterlimit="10" stroke-linecap="round" stroke-linejoin="round"/>
<path d="M1449.39 628.118C1449.39 628.118 1429.99 608.035 1416.52 594.877C1403.06 581.718 1394.8 556.802 1392.54 543.136C1390.29 529.469 1397.62 519.358 1403.47 507.515C1409.32 495.674 1414.4 485.858 1416.63 479.306C1418.85 472.754 1421.85 464.174 1421.85 464.174C1421.85 464.174 1433.03 480.522 1443.24 491.701C1453.44 502.88 1463.08 523.282 1470.7 539.133C1478.32 554.984 1478.87 564.059 1476.47 578.821C1474.06 593.582 1469.1 600.974 1461.89 608.662C1454.67 616.349 1449.39 628.118 1449.39 628.118Z" stroke="#283739" stroke-miterlimit="10" stroke-linecap="round" stroke-linejoin="round"/>
<path d="M1449.39 628.118C1449.39 628.118 1429.02 593.718 1422.82 576.235C1416.62 558.752 1412.86 541.912 1414.32 528.238C1415.78 514.565 1424.36 501.883 1424.07 494.218C1423.77 486.552 1421.85 464.174 1421.85 464.174C1421.85 464.174 1435.43 502.355 1438.42 512.074C1441.42 521.792 1451.82 549.315 1453 561.678C1454.18 574.042 1455.87 582.968 1453.55 598.2C1451.23 613.43 1449.39 628.118 1449.39 628.118Z" stroke="#283739" stroke-miterlimit="10" stroke-linecap="round" stroke-linejoin="round"/>
<path d="M1486.57 738.312C1486.57 738.312 1459.32 726.482 1445.14 718.714C1430.96 710.946 1422.98 702.363 1410.76 695.782C1398.54 689.202 1382.78 688.382 1369.85 687.192C1356.91 686.002 1343.63 683.245 1330.57 679.747C1317.51 676.25 1298.43 670.086 1295.91 668.974C1293.39 667.861 1288.07 682.523 1298.24 705.744C1308.41 728.965 1323.92 743.781 1336.77 753.65C1349.61 763.518 1362.34 766.662 1386.37 765.432C1410.41 764.202 1429.49 752.066 1445.49 748.04C1461.48 744.014 1486.57 738.312 1486.57 738.312Z" stroke="#283739" stroke-miterlimit="10" stroke-linecap="round" stroke-linejoin="round"/>
<path d="M1486.57 738.312C1486.57 738.312 1450.72 723.76 1431.61 720.491C1412.5 717.222 1397.45 720.16 1379 717.288C1360.55 714.414 1340.17 698.312 1323.73 690.84C1307.3 683.368 1295.91 668.974 1295.91 668.974C1295.91 668.974 1299.38 690.186 1311.02 705.992C1322.65 721.798 1350.77 742.179 1367.54 745.275C1384.3 748.371 1395.46 749.314 1414.27 744.917C1433.08 740.52 1478.42 734.085 1486.57 738.312Z" stroke="#283739" stroke-miterlimit="10" stroke-linecap="round" stroke-linejoin="round"/>
</g>
<path d="M309.736 731.554C309.084 737.166 308.431 742.779 307.778 748.394C307.53 750.526 307.338 752.853 308.772 754.63C310.092 756.264 312.465 757.024 314.688 757.691C319.584 759.158 324.57 760.642 329.768 760.846C334.965 761.051 340.499 759.792 343.949 756.546C345.996 754.619 347.157 752.163 348.204 749.741C350.481 744.475 352.414 739.094 353.651 733.594C359.743 706.478 312.305 709.451 309.736 731.554Z" fill="#283739"/>
<path d="M324.106 703.227C325.459 692.883 299.439 698.984 311.107 707.858C313.549 709.715 317.612 709.926 320.229 708.24C321.214 707.605 321.972 706.758 322.671 705.899C323.336 705.085 323.977 704.208 324.106 703.227Z" fill="#283739"/>
<path d="M357.06 717.21C358.612 718.603 359.641 720.395 359.971 722.275C360.319 724.248 359.914 726.286 360.413 728.237C360.743 729.526 361.469 730.744 362.504 731.741C362.784 732.011 363.122 732.28 363.548 732.323C363.928 732.362 364.297 732.208 364.625 732.042C366.248 731.219 367.509 729.973 368.49 728.619C373.023 722.358 371.063 713.754 364.654 708.909C361.92 706.842 358.79 705.344 355.692 707.656C351.262 710.962 354.04 714.496 357.06 717.21Z" fill="#283739"/>
<path d="M1140.4 110.624C1140.94 113.614 1144.33 115.573 1147.45 117.123C1153.75 120.256 1160.63 123.675 1163.2 129.405C1164.14 131.499 1164.45 133.832 1165.97 135.674C1168.36 138.573 1173.01 139.426 1177.22 139.669C1180.23 139.843 1183.44 139.784 1185.99 138.446C1188.31 137.23 1189.74 135.139 1190.88 133.062C1195.29 125.048 1196.81 115.949 1195.19 107.238C1194.68 104.491 1193.78 101.65 1191.48 99.6352C1186.47 95.2368 1180.12 97.1904 1174.12 98.2144C1168.19 99.2272 1167.6 98.6016 1162.17 97.2944C1153.29 95.16 1138.58 100.494 1140.4 110.624Z" fill="#283739"/>
<path d="M1175.92 83.8464C1174.88 78.544 1158.73 80.6832 1157.34 84.6576C1156.25 87.8144 1160.57 90.2128 1163.7 90.7456C1166.54 91.2288 1169.63 91.0928 1172.13 89.8784C1174.63 88.664 1176.38 86.2272 1175.92 83.8464Z" fill="#283739"/>
<path d="M1200.94 141.525C1201.08 141.691 1201.25 141.837 1201.44 141.957C1207.61 145.899 1213.39 135.47 1214.21 131.933C1215.45 126.63 1213.76 121.338 1209.02 117.432C1205.07 114.176 1202.79 112.984 1200.49 117.152C1198.27 121.184 1200.97 127.157 1200.75 131.486C1200.64 133.63 1199.04 139.363 1200.94 141.525Z" fill="#283739"/>
</g>
<defs>
<clipPath id="clip0_7_8">
<rect width="1440" height="800" fill="white"/>
</clipPath>
</defs>
</svg>
