<svg width="309" height="70" viewBox="0 0 309 70" fill="none" xmlns="http://www.w3.org/2000/svg">
<g clip-path="url(#clip0_10_172)">
<path d="M36.7145 12.2308L31.0162 19.739C29.787 18.1664 28.4196 16.9678 26.9093 16.1527C25.399 15.3377 23.7267 14.9301 21.8781 14.9301C19.4197 14.9301 17.5187 15.5486 16.1799 16.7856C14.8411 18.0226 14.1693 19.6 14.1693 21.5082C14.1693 22.2945 14.3075 22.9993 14.5886 23.6178C14.8697 24.2363 15.3128 24.7973 15.9274 25.3055C16.4848 25.8664 17.1995 26.3603 18.0666 26.7822C18.9337 27.2041 20.4536 27.7794 22.6357 28.513C25.9326 29.75 28.3625 30.776 29.93 31.5911C31.4927 32.4062 32.8362 33.2644 33.9511 34.1658C35.5138 35.6281 36.7049 37.3589 37.5149 39.3534C38.3248 41.3479 38.7298 43.5582 38.7298 45.9747C38.7298 51.4883 36.9289 55.9425 33.3222 59.3418C29.7203 62.7459 25.0369 64.4431 19.2815 64.4431C15.4795 64.4431 11.9205 63.5705 8.59498 61.8301C5.26942 60.0897 2.40602 57.4144 0.00476074 53.8185L7.12754 46.9863C8.24241 49.2925 9.85278 51.1336 11.9491 52.5096C14.0455 53.8904 16.3514 54.5473 18.8623 54.4945C21.3207 54.5521 23.3599 53.8616 24.9798 52.4281C26.5996 50.9945 27.4382 49.0959 27.4954 46.7322C27.4954 45.7781 27.3143 44.8767 26.9522 44.0329C26.5901 43.189 26.0422 42.4027 25.318 41.6692C24.6462 41.0507 23.7934 40.4753 22.7595 39.9384C21.7257 39.4062 19.7008 38.6055 16.6802 37.5363C14.3313 36.75 12.4494 35.9733 11.0201 35.2157C9.5955 34.4582 8.38058 33.6 7.37529 32.6411C5.81257 31.3466 4.67864 29.8171 3.97827 28.0431C3.2779 26.274 2.9301 24.3178 2.9301 22.1794C2.9301 17.1164 4.59288 13.0986 7.91843 10.1164C11.244 7.13424 15.5605 5.64794 20.8681 5.64794C24.0555 5.70548 26.9713 6.28082 29.6298 7.37876C32.2836 8.47671 34.6467 10.0925 36.7145 12.2308Z" fill="#2871EE"/>
<path d="M46.7721 0H56.9965V40.0199L70.5703 26.6575H83.8201L66.8064 42.6856L85.1636 63.1822H71.6232L58.0971 47.576L56.9965 48.5877V63.1822H46.7721V0Z" fill="#2871EE"/>
<path d="M88.6798 11.2192C88.6798 9.5315 89.2658 8.08356 90.4379 6.87534C91.6099 5.66712 93.0631 5.06301 94.7973 5.06301C96.5315 5.06301 97.9132 5.66712 99.1138 6.87534C100.314 8.08356 100.915 9.5315 100.915 11.2192C100.915 12.9068 100.314 14.4267 99.1138 15.6062C97.9132 16.7856 96.4744 17.3753 94.7973 17.3753C93.1202 17.3753 91.6099 16.7856 90.4379 15.6062C89.2658 14.4267 88.6798 12.9644 88.6798 11.2192ZM89.6851 26.6527H99.9095V63.1774H89.6851V26.6527Z" fill="#2871EE"/>
<path d="M109.634 0H119.858V63.1774H109.634V0Z" fill="#2871EE"/>
<path d="M129.582 0H139.807V63.1774H129.582V0Z" fill="#2871EE"/>
<path d="M174.344 29.3521L169.313 35.3404C168.417 34.5541 167.454 33.95 166.421 33.5281C165.387 33.1062 164.367 32.8952 163.362 32.8952C162.133 32.8952 161.17 33.1637 160.47 33.6959C159.769 34.2329 159.422 34.9473 159.422 35.8486C159.364 36.6349 159.631 37.311 160.217 37.8719C160.803 38.4329 161.628 38.8548 162.69 39.1377L165.12 39.8952C167.578 40.6815 169.532 41.4966 170.985 42.3404C172.438 43.1842 173.553 44.1096 174.339 45.126C174.896 45.9123 175.344 46.8425 175.683 47.9116C176.016 48.9808 176.183 50.0788 176.183 51.2007C176.126 53.1712 175.749 54.926 175.049 56.4747C174.348 58.0233 173.386 59.3562 172.157 60.4829C170.704 61.8349 169.084 62.8034 167.297 63.3932C165.506 63.9829 163.495 64.3041 161.261 64.3616C158.521 64.3616 155.953 63.8678 153.552 62.8849C151.151 61.9021 149.026 60.3678 147.182 58.287L152.547 52.0445C153.552 53.2815 154.767 54.2931 156.191 55.0794C157.616 55.8657 159.083 56.2589 160.594 56.2589C162.104 56.2589 163.247 55.9089 164.2 55.2041C165.148 54.5041 165.625 53.5308 165.625 52.2938C165.568 51.5075 165.291 50.8027 164.786 50.1842C164.286 49.5658 163.5 49.0336 162.437 48.5829L160.093 47.739C158.026 47.0103 156.406 46.3055 155.229 45.6294C154.057 44.9534 153.075 44.1959 152.294 43.3521C151.398 42.4555 150.703 41.4247 150.198 40.274C149.693 39.1233 149.469 37.8144 149.526 36.3521C149.526 34.6644 149.859 33.1062 150.531 31.6726C151.203 30.239 152.123 29.0452 153.299 28.0863C154.305 27.2425 155.562 26.5952 157.073 26.1445C158.583 25.6938 160.479 25.4685 162.771 25.4685C165.063 25.4685 167.145 25.8041 169.017 26.4801C170.89 27.1562 172.662 28.1103 174.339 29.3473L174.344 29.3521Z" fill="#2871EE"/>
<path d="M273.963 63.7048V27.1801H284.187V31.9027C285.473 30.1048 287.065 28.6712 288.966 27.6021C290.867 26.5329 293.015 26.0007 295.421 26.0007C297.546 26.0007 299.557 26.3938 301.458 27.1801C303.359 27.9664 304.922 29.0644 306.151 30.4692C307.042 31.6486 307.728 33.0151 308.204 34.5589C308.681 36.1075 308.943 38.174 309 40.7582V63.7H298.776V43.7931C298.776 41.9952 298.609 40.5329 298.271 39.4062C297.937 38.2842 297.461 37.3541 296.846 36.6205C296.231 36.0596 295.517 35.6089 294.707 35.2733C293.897 34.9377 293.015 34.7651 292.067 34.7651C290.671 34.7651 289.442 35.0336 288.38 35.5658C287.317 36.1027 286.45 36.9034 285.783 37.9678C285.169 38.8692 284.749 39.8377 284.525 40.8781C284.301 41.9185 284.192 43.3089 284.192 45.0541V63.6952H273.967L273.963 63.7048Z" fill="#2871EE"/>
<path d="M250.846 25.8329H199.757C190.284 25.8329 182.605 33.5606 182.605 43.0931V46.5308C182.605 56.0634 190.284 63.7911 199.757 63.7911H250.846C260.318 63.7911 267.998 56.0634 267.998 46.5308V43.0931C267.998 33.5606 260.318 25.8329 250.846 25.8329Z" fill="#4ECC5D"/>
<g filter="url(#filter0_d_10_172)">
<path d="M249.135 61.6815C258.395 61.6815 265.901 54.1277 265.901 44.8096C265.901 35.4915 258.395 27.9377 249.135 27.9377C239.876 27.9377 232.369 35.4915 232.369 44.8096C232.369 54.1277 239.876 61.6815 249.135 61.6815Z" fill="white"/>
</g>
</g>
<defs>
<filter id="filter0_d_10_172" x="222.369" y="19.9377" width="53.5319" height="53.7438" filterUnits="userSpaceOnUse" color-interpolation-filters="sRGB">
<feFlood flood-opacity="0" result="BackgroundImageFix"/>
<feColorMatrix in="SourceAlpha" type="matrix" values="0 0 0 0 0 0 0 0 0 0 0 0 0 0 0 0 0 0 127 0" result="hardAlpha"/>
<feOffset dy="2"/>
<feGaussianBlur stdDeviation="5"/>
<feColorMatrix type="matrix" values="0 0 0 0 0 0 0 0 0 0 0 0 0 0 0 0 0 0 0.51 0"/>
<feBlend mode="normal" in2="BackgroundImageFix" result="effect1_dropShadow_10_172"/>
<feBlend mode="normal" in="SourceGraphic" in2="effect1_dropShadow_10_172" result="shape"/>
</filter>
<clipPath id="clip0_10_172">
<rect width="309" height="70" fill="white"/>
</clipPath>
</defs>
</svg>
