<svg width="70" height="70" viewBox="0 0 70 70" fill="none" xmlns="http://www.w3.org/2000/svg">
<path d="M51.1497 36.8229C51.1602 39.3397 51.907 41.7984 53.2981 43.8959C54.6891 45.9933 56.6636 47.6379 58.978 48.6267C58.0409 51.5733 56.6812 54.3684 54.9414 56.9246C52.5089 60.4771 49.983 64.0179 46.0105 64.0908C42.1051 64.1638 40.8509 61.775 36.3855 61.775C31.9201 61.775 30.5259 64.0179 26.8334 64.1667C22.9951 64.3096 20.0755 60.3225 17.6226 56.7817C12.6089 49.5367 8.77928 36.3154 13.9184 27.3904C15.1257 25.231 16.8728 23.4219 18.9889 22.1402C21.105 20.8585 23.5175 20.148 25.9905 20.0783C29.7589 20.0054 33.3143 22.6129 35.6155 22.6129C37.9168 22.6129 42.2393 19.4775 46.7805 19.9383C48.8867 20.0111 50.9473 20.5716 52.8001 21.5757C54.653 22.5798 56.2476 24.0002 57.4584 25.725C55.5549 26.8907 53.9783 28.5203 52.8759 30.4612C51.7736 32.4021 51.1817 34.591 51.1555 36.8229M43.8084 15.1463C46.011 12.565 47.1016 9.21659 46.8418 5.83334C43.518 6.15565 40.4436 7.73774 38.2493 10.255C37.1544 11.474 36.3161 12.901 35.7844 14.4509C35.2528 16.0008 35.0386 17.6418 35.1547 19.2763C36.8176 19.2995 38.4634 18.939 39.9643 18.2227C41.4652 17.5064 42.7806 16.4537 43.8084 15.1463Z" fill="#283739"/>
</svg>
