<svg width="70" height="70" viewBox="0 0 70 70" fill="none" xmlns="http://www.w3.org/2000/svg">
<path fill-rule="evenodd" clip-rule="evenodd" d="M34.5393 61.4921C27.7333 61.3763 21.252 58.5616 16.5212 53.6673C11.7904 48.7729 9.19756 42.1998 9.31302 35.3938C9.4567 28.6715 12.2204 22.2711 17.015 17.5572C21.8097 12.8432 28.2559 10.1884 34.9797 10.1588H35.423C41.5926 10.1985 47.5237 12.547 52.048 16.7417L45.6518 22.6858C42.8138 20.0949 39.1083 18.661 35.2655 18.6667C30.7597 18.657 26.4309 20.4204 23.2145 23.5759C19.998 26.7314 18.1521 31.0256 18.0755 35.5308C17.9989 40.036 19.6977 44.3904 22.805 47.6534C25.9123 50.9165 30.1786 52.826 34.6822 52.9696H35.0439C38.5887 53.1519 42.0817 52.0584 44.8897 49.8871C47.6977 47.7158 49.635 44.6104 50.3505 41.1338L50.4584 40.8333H35.0001V32.0833H59.328C59.5176 33.6666 59.6024 35.2606 59.5818 36.855C59.3309 51.5929 49.4814 61.4979 35.0818 61.4979L34.5393 61.4921Z" fill="#283739"/>
</svg>
